<svg xmlns="http://www.w3.org/2000/svg" width="135" height="134" viewBox="0 0 135 134" version="1.1"><path d="M 22.669 12.250 C 20.372 15.319, 17 21.340, 17 22.374 C 17 22.634, 18.990 22.770, 21.422 22.676 C 29.505 22.363, 33.949 30.136, 29.107 36.116 C 26.430 39.422, 19.570 39.422, 16.893 36.116 C 15.852 34.831, 15 32.966, 15 31.973 C 15 30.979, 14.438 29.977, 13.750 29.745 C 12.468 29.313, 11.722 30.350, 6.227 40.191 L 3.050 45.882 8.775 49.099 C 17.430 53.964, 17.481 54.029, 14.197 56.026 C 5.678 61.207, 9.064 74, 18.955 74 C 21.693 74, 23.659 73.341, 25.040 71.960 C 27.673 69.327, 29.210 65.238, 28.458 62.868 C 27.615 60.212, 28.665 60.501, 36 64.939 C 40.975 67.949, 42.767 68.594, 43.640 67.686 C 46.168 65.056, 52.838 51.995, 51.699 51.903 C 51.040 51.850, 48.826 51.883, 46.779 51.977 C 39.178 52.327, 35.164 43.745, 40.455 38.455 C 45.027 33.882, 53.026 36.242, 54.164 42.500 C 54.862 46.344, 57.471 44.442, 61.709 37 C 64.058 32.875, 65.985 29.266, 65.990 28.981 C 65.996 28.695, 63.188 26.898, 59.750 24.986 C 56.313 23.075, 52.732 21.058, 51.793 20.505 C 29.846 7.581, 26.809 6.720, 22.669 12.250 M 24.842 11.750 C 22.568 14.462, 20 18.819, 20 19.965 C 20 20.534, 21.528 21, 23.396 21 C 26.032 21, 27.488 21.791, 29.896 24.535 C 33.363 28.484, 33.706 30.735, 31.490 35.020 C 29.614 38.646, 27.176 40, 22.520 40 C 18.965 40, 14 36.530, 14 34.045 C 14 33.470, 13.593 33, 13.095 33 C 12.154 33, 6 43.293, 6 44.868 C 6 45.831, 17.523 53, 19.072 53 C 21.144 53, 19.822 55.828, 17.475 56.417 C 10.968 58.050, 8.751 65.842, 13.455 70.545 C 16.352 73.443, 19.099 73.645, 23.137 71.260 C 26.384 69.342, 27.555 66.346, 26.578 62.454 C 25.244 57.138, 26.455 57.387, 39.578 65.134 L 42.656 66.950 46.192 60.589 L 49.727 54.227 45.615 53.675 C 40.306 52.963, 37 49.315, 37 44.167 C 37 39.419, 39.094 36.454, 43.465 35.012 C 47.687 33.618, 52.958 35.685, 55.024 39.545 C 56.429 42.170, 57.997 42.804, 58.004 40.750 C 58.007 40.063, 59.355 37.475, 61 35 C 62.645 32.525, 63.993 30.210, 63.996 29.855 C 63.999 29.297, 52.649 22.526, 35.500 12.856 C 29.708 9.590, 26.899 9.298, 24.842 11.750 M 78 37.523 L 78 46.046 75.526 44.425 C 74.165 43.533, 71.408 42.757, 69.400 42.700 C 66.481 42.617, 65.174 43.241, 62.875 45.814 C 58.477 50.736, 59.545 57.679, 65.145 60.575 C 68.643 62.384, 70.777 62.365, 74.364 60.494 C 75.940 59.672, 77.422 59, 77.658 59 C 77.894 59, 77.955 62.263, 77.794 66.250 L 77.500 73.500 68.750 73.789 C 63.938 73.948, 60 74.510, 60 75.039 C 60 75.568, 60.900 76.900, 62 78 C 64.391 80.391, 64.636 85.647, 62.499 88.698 C 59.607 92.828, 52.675 92.507, 49.282 88.087 C 47.370 85.597, 47.749 80.537, 50 78.500 C 54.052 74.833, 52.664 74, 42.500 74 L 33 74 33 94.365 C 33 113.454, 33.130 114.895, 35.073 117.365 C 36.979 119.789, 37.740 120, 44.573 120 C 52.588 120, 53.833 118.968, 50 115.500 C 46.290 112.143, 48.141 105.013, 53.273 102.887 C 55.871 101.811, 56.786 101.905, 59.894 103.569 C 62.960 105.211, 63.548 106.085, 63.820 109.410 C 64.046 112.170, 63.531 114.143, 62.070 116.119 C 60.931 117.659, 60 119.162, 60 119.460 C 60 119.757, 73.422 120, 89.826 120 L 119.651 120 121.826 117.686 C 123.642 115.753, 124 114.187, 124 108.186 C 124 100.586, 123.309 99.691, 120 103 C 117.750 105.250, 112.405 105.631, 109.913 103.718 C 107.365 101.761, 105.783 98.002, 106.427 95.435 C 107.917 89.499, 115.893 86.893, 120 91 C 121.100 92.100, 122.450 93, 123 93 C 123.644 93, 124 82.391, 124 63.174 L 124 33.349 121.686 31.174 C 119.753 29.358, 118.187 29, 112.186 29 C 104.512 29, 103.686 29.674, 107 33.230 C 109.828 36.266, 109.619 41.472, 106.545 44.545 C 103.737 47.354, 101.115 47.628, 97.072 45.537 C 92.496 43.171, 91.462 37.028, 95 33.230 C 98.461 29.515, 97.548 29, 87.500 29 L 78 29 78 37.523 M 85.877 30.739 L 79.255 31.086 79.422 39.153 C 79.606 48.097, 78.624 49.591, 74.863 46.087 C 69.256 40.864, 61.321 45.831, 61.885 54.211 C 62.228 59.313, 71.119 61.881, 75 58 C 78.910 54.090, 79.726 55.286, 79.609 64.750 L 79.500 73.500 86.875 73.796 C 93.640 74.068, 94.188 73.944, 93.502 72.296 C 90.528 65.153, 90.517 65.052, 92.372 61.609 C 96.302 54.311, 105.859 53.960, 109.490 60.980 C 111.384 64.643, 111.385 66.739, 109.494 70.364 C 108.672 71.940, 108 73.422, 108 73.658 C 108 73.894, 111.263 73.955, 115.250 73.794 L 122.500 73.500 122.771 54.387 C 123.094 31.655, 123.010 31.435, 113.750 30.757 C 110.588 30.525, 108 30.434, 108 30.553 C 108 30.673, 108.672 32.060, 109.494 33.636 C 111.615 37.703, 111.356 41.482, 108.750 44.462 C 103.986 49.910, 95.720 49.228, 92.565 43.125 C 90.611 39.347, 90.584 36.932, 92.468 34.441 C 94.033 32.372, 94.494 29.871, 93.250 30.196 C 92.838 30.304, 89.520 30.548, 85.877 30.739 M 96.077 59.589 C 92.341 62.732, 91.858 67.858, 95 71 C 96.100 72.100, 97 73.432, 97 73.961 C 97 74.490, 93.063 75.052, 88.250 75.211 L 79.500 75.500 79.206 82.750 C 79.045 86.737, 79.102 90, 79.334 90 C 79.566 90, 81.450 89.292, 83.520 88.427 C 87.977 86.565, 91.271 87.180, 94.586 90.495 C 97.195 93.104, 97.847 98.550, 95.970 102.055 C 93.422 106.817, 85.892 107.999, 81.771 104.286 C 79.388 102.139, 78.811 103.893, 79.199 112.105 L 79.500 118.500 98.588 118.771 C 116.667 119.028, 117.818 118.931, 120.338 116.948 C 122.636 115.141, 123 114.113, 123 109.427 C 123 106.442, 122.753 104, 122.450 104 C 122.148 104, 120.500 104.724, 118.788 105.610 C 112.661 108.778, 105 103.968, 105 96.954 C 105 93.691, 108.052 89.221, 111.160 87.934 C 113.845 86.821, 115.114 87.020, 121.296 89.522 C 122.943 90.189, 123.068 89.634, 122.796 82.875 L 122.500 75.500 113.750 75.211 C 108.938 75.052, 105 74.673, 105 74.369 C 105 74.064, 105.900 72.671, 107 71.273 C 110.497 66.828, 109.529 60.842, 104.928 58.463 C 101.005 56.434, 99.616 56.611, 96.077 59.589 M 34.882 93.703 C 34.740 116.190, 34.639 115.094, 37.049 117.154 C 38.810 118.659, 49 119.716, 49 118.393 C 49 118.122, 48.408 116.686, 47.685 115.200 C 46.961 113.715, 46.443 111.825, 46.532 111 C 46.622 110.175, 46.764 108.691, 46.848 107.702 C 47.125 104.434, 51.928 101, 56.223 101 C 63.879 101, 68.707 109.690, 64.438 115.785 C 62.407 118.684, 63.667 119.214, 71.612 118.804 L 77.500 118.500 77.789 109.750 C 77.963 104.471, 78.496 101, 79.131 101 C 79.711 101, 81.329 101.900, 82.727 103 C 85.984 105.562, 90.032 105.551, 92.799 102.972 C 95.647 100.319, 96.475 96.758, 94.922 93.843 C 92.187 88.711, 87.135 87.533, 82.727 91 C 81.329 92.100, 79.711 93, 79.131 93 C 78.496 93, 77.963 89.529, 77.789 84.250 L 77.500 75.500 70.250 75.206 C 66.263 75.045, 63.014 75.270, 63.032 75.706 C 63.049 76.143, 63.724 77.374, 64.532 78.441 C 68.710 83.965, 63.751 93, 56.542 93 C 48.901 93, 44.520 86.477, 47.451 79.464 C 48.303 77.424, 49 75.698, 48.999 75.628 C 48.999 75.558, 45.849 75.366, 41.999 75.203 L 35 74.906 34.882 93.703" stroke="none" fill="#000000" fill-rule="evenodd"/><path d="M 22.669 12.250 C 20.372 15.319, 17 21.340, 17 22.374 C 17 22.634, 18.990 22.770, 21.422 22.676 C 29.505 22.363, 33.949 30.136, 29.107 36.116 C 26.430 39.422, 19.570 39.422, 16.893 36.116 C 15.852 34.831, 15 32.966, 15 31.973 C 15 30.979, 14.438 29.977, 13.750 29.745 C 12.468 29.313, 11.722 30.350, 6.227 40.191 L 3.050 45.882 8.775 49.099 C 17.430 53.964, 17.481 54.029, 14.197 56.026 C 5.678 61.207, 9.064 74, 18.955 74 C 21.693 74, 23.659 73.341, 25.040 71.960 C 27.673 69.327, 29.210 65.238, 28.458 62.868 C 27.615 60.212, 28.665 60.501, 36 64.939 C 40.975 67.949, 42.767 68.594, 43.640 67.686 C 46.168 65.056, 52.838 51.995, 51.699 51.903 C 51.040 51.850, 48.826 51.883, 46.779 51.977 C 39.178 52.327, 35.164 43.745, 40.455 38.455 C 45.027 33.882, 53.026 36.242, 54.164 42.500 C 54.862 46.344, 57.471 44.442, 61.709 37 C 64.058 32.875, 65.985 29.266, 65.990 28.981 C 65.996 28.695, 63.188 26.898, 59.750 24.986 C 56.313 23.075, 52.732 21.058, 51.793 20.505 C 29.846 7.581, 26.809 6.720, 22.669 12.250 M 24.842 11.750 C 22.568 14.462, 20 18.819, 20 19.965 C 20 20.534, 21.528 21, 23.396 21 C 26.032 21, 27.488 21.791, 29.896 24.535 C 33.363 28.484, 33.706 30.735, 31.490 35.020 C 29.614 38.646, 27.176 40, 22.520 40 C 18.965 40, 14 36.530, 14 34.045 C 14 33.470, 13.593 33, 13.095 33 C 12.154 33, 6 43.293, 6 44.868 C 6 45.831, 17.523 53, 19.072 53 C 21.144 53, 19.822 55.828, 17.475 56.417 C 10.968 58.050, 8.751 65.842, 13.455 70.545 C 16.352 73.443, 19.099 73.645, 23.137 71.260 C 26.384 69.342, 27.555 66.346, 26.578 62.454 C 25.244 57.138, 26.455 57.387, 39.578 65.134 L 42.656 66.950 46.192 60.589 L 49.727 54.227 45.615 53.675 C 40.306 52.963, 37 49.315, 37 44.167 C 37 39.419, 39.094 36.454, 43.465 35.012 C 47.687 33.618, 52.958 35.685, 55.024 39.545 C 56.429 42.170, 57.997 42.804, 58.004 40.750 C 58.007 40.063, 59.355 37.475, 61 35 C 62.645 32.525, 63.993 30.210, 63.996 29.855 C 63.999 29.297, 52.649 22.526, 35.500 12.856 C 29.708 9.590, 26.899 9.298, 24.842 11.750 M 78 37.523 L 78 46.046 75.526 44.425 C 74.165 43.533, 71.408 42.757, 69.400 42.700 C 66.481 42.617, 65.174 43.241, 62.875 45.814 C 58.477 50.736, 59.545 57.679, 65.145 60.575 C 68.643 62.384, 70.777 62.365, 74.364 60.494 C 75.940 59.672, 77.422 59, 77.658 59 C 77.894 59, 77.955 62.263, 77.794 66.250 L 77.500 73.500 68.750 73.789 C 63.938 73.948, 60 74.510, 60 75.039 C 60 75.568, 60.900 76.900, 62 78 C 64.391 80.391, 64.636 85.647, 62.499 88.698 C 59.607 92.828, 52.675 92.507, 49.282 88.087 C 47.370 85.597, 47.749 80.537, 50 78.500 C 54.052 74.833, 52.664 74, 42.500 74 L 33 74 33 94.365 C 33 113.454, 33.130 114.895, 35.073 117.365 C 36.979 119.789, 37.740 120, 44.573 120 C 52.588 120, 53.833 118.968, 50 115.500 C 46.290 112.143, 48.141 105.013, 53.273 102.887 C 55.871 101.811, 56.786 101.905, 59.894 103.569 C 62.960 105.211, 63.548 106.085, 63.820 109.410 C 64.046 112.170, 63.531 114.143, 62.070 116.119 C 60.931 117.659, 60 119.162, 60 119.460 C 60 119.757, 73.422 120, 89.826 120 L 119.651 120 121.826 117.686 C 123.642 115.753, 124 114.187, 124 108.186 C 124 100.586, 123.309 99.691, 120 103 C 117.750 105.250, 112.405 105.631, 109.913 103.718 C 107.365 101.761, 105.783 98.002, 106.427 95.435 C 107.917 89.499, 115.893 86.893, 120 91 C 121.100 92.100, 122.450 93, 123 93 C 123.644 93, 124 82.391, 124 63.174 L 124 33.349 121.686 31.174 C 119.753 29.358, 118.187 29, 112.186 29 C 104.512 29, 103.686 29.674, 107 33.230 C 109.828 36.266, 109.619 41.472, 106.545 44.545 C 103.737 47.354, 101.115 47.628, 97.072 45.537 C 92.496 43.171, 91.462 37.028, 95 33.230 C 98.461 29.515, 97.548 29, 87.500 29 L 78 29 78 37.523 M 85.877 30.739 L 79.255 31.086 79.422 39.153 C 79.606 48.097, 78.624 49.591, 74.863 46.087 C 69.256 40.864, 61.321 45.831, 61.885 54.211 C 62.228 59.313, 71.119 61.881, 75 58 C 78.910 54.090, 79.726 55.286, 79.609 64.750 L 79.500 73.500 86.875 73.796 C 93.640 74.068, 94.188 73.944, 93.502 72.296 C 90.528 65.153, 90.517 65.052, 92.372 61.609 C 96.302 54.311, 105.859 53.960, 109.490 60.980 C 111.384 64.643, 111.385 66.739, 109.494 70.364 C 108.672 71.940, 108 73.422, 108 73.658 C 108 73.894, 111.263 73.955, 115.250 73.794 L 122.500 73.500 122.771 54.387 C 123.094 31.655, 123.010 31.435, 113.750 30.757 C 110.588 30.525, 108 30.434, 108 30.553 C 108 30.673, 108.672 32.060, 109.494 33.636 C 111.615 37.703, 111.356 41.482, 108.750 44.462 C 103.986 49.910, 95.720 49.228, 92.565 43.125 C 90.611 39.347, 90.584 36.932, 92.468 34.441 C 94.033 32.372, 94.494 29.871, 93.250 30.196 C 92.838 30.304, 89.520 30.548, 85.877 30.739 M 96.077 59.589 C 92.341 62.732, 91.858 67.858, 95 71 C 96.100 72.100, 97 73.432, 97 73.961 C 97 74.490, 93.063 75.052, 88.250 75.211 L 79.500 75.500 79.206 82.750 C 79.045 86.737, 79.102 90, 79.334 90 C 79.566 90, 81.450 89.292, 83.520 88.427 C 87.977 86.565, 91.271 87.180, 94.586 90.495 C 97.195 93.104, 97.847 98.550, 95.970 102.055 C 93.422 106.817, 85.892 107.999, 81.771 104.286 C 79.388 102.139, 78.811 103.893, 79.199 112.105 L 79.500 118.500 98.588 118.771 C 116.667 119.028, 117.818 118.931, 120.338 116.948 C 122.636 115.141, 123 114.113, 123 109.427 C 123 106.442, 122.753 104, 122.450 104 C 122.148 104, 120.500 104.724, 118.788 105.610 C 112.661 108.778, 105 103.968, 105 96.954 C 105 93.691, 108.052 89.221, 111.160 87.934 C 113.845 86.821, 115.114 87.020, 121.296 89.522 C 122.943 90.189, 123.068 89.634, 122.796 82.875 L 122.500 75.500 113.750 75.211 C 108.938 75.052, 105 74.673, 105 74.369 C 105 74.064, 105.900 72.671, 107 71.273 C 110.497 66.828, 109.529 60.842, 104.928 58.463 C 101.005 56.434, 99.616 56.611, 96.077 59.589 M 34.882 93.703 C 34.740 116.190, 34.639 115.094, 37.049 117.154 C 38.810 118.659, 49 119.716, 49 118.393 C 49 118.122, 48.408 116.686, 47.685 115.200 C 46.961 113.715, 46.443 111.825, 46.532 111 C 46.622 110.175, 46.764 108.691, 46.848 107.702 C 47.125 104.434, 51.928 101, 56.223 101 C 63.879 101, 68.707 109.690, 64.438 115.785 C 62.407 118.684, 63.667 119.214, 71.612 118.804 L 77.500 118.500 77.789 109.750 C 77.963 104.471, 78.496 101, 79.131 101 C 79.711 101, 81.329 101.900, 82.727 103 C 85.984 105.562, 90.032 105.551, 92.799 102.972 C 95.647 100.319, 96.475 96.758, 94.922 93.843 C 92.187 88.711, 87.135 87.533, 82.727 91 C 81.329 92.100, 79.711 93, 79.131 93 C 78.496 93, 77.963 89.529, 77.789 84.250 L 77.500 75.500 70.250 75.206 C 66.263 75.045, 63.014 75.270, 63.032 75.706 C 63.049 76.143, 63.724 77.374, 64.532 78.441 C 68.710 83.965, 63.751 93, 56.542 93 C 48.901 93, 44.520 86.477, 47.451 79.464 C 48.303 77.424, 49 75.698, 48.999 75.628 C 48.999 75.558, 45.849 75.366, 41.999 75.203 L 35 74.906 34.882 93.703" stroke="none" fill="#000000" fill-rule="evenodd"/><path d="M 23.323 10.250 C 22.209 11.488, 20.946 13.175, 20.517 14 C 20.088 14.825, 21.033 14.053, 22.618 12.284 C 24.578 10.097, 26.619 8.949, 29 8.694 L 32.500 8.320 28.924 8.160 C 26.347 8.045, 24.783 8.628, 23.323 10.250 M 33 9.430 C 33 9.705, 33.900 10.411, 35 11 C 36.100 11.589, 37 11.845, 37 11.570 C 37 11.295, 36.100 10.589, 35 10 C 33.900 9.411, 33 9.155, 33 9.430 M 25.612 10.819 C 25.333 11.270, 26.432 11.443, 28.053 11.206 C 29.674 10.968, 31 10.599, 31 10.387 C 31 9.625, 26.107 10.017, 25.612 10.819 M 36 13.430 C 36 13.705, 36.900 14.411, 38 15 C 39.100 15.589, 40 15.845, 40 15.570 C 40 15.295, 39.100 14.589, 38 14 C 36.900 13.411, 36 13.155, 36 13.430 M 40 13.430 C 40 13.705, 40.900 14.411, 42 15 C 43.100 15.589, 44 15.845, 44 15.570 C 44 15.295, 43.100 14.589, 42 14 C 40.900 13.411, 40 13.155, 40 13.430 M 20.667 17.667 C 19.200 19.133, 20.116 20.994, 22.250 20.884 C 24.054 20.791, 24.139 20.675, 22.677 20.297 C 21.604 20.019, 21.076 19.243, 21.395 18.413 C 21.982 16.882, 21.720 16.613, 20.667 17.667 M 16.989 20.021 C 15.703 22.423, 16.467 24.045, 18.809 23.884 C 20.334 23.779, 20.328 23.723, 18.750 23.311 C 16.709 22.777, 16.654 22.516, 18.035 19.934 C 18.605 18.870, 18.845 18, 18.570 18 C 18.295 18, 17.584 18.909, 16.989 20.021 M 49.630 19.176 C 50.092 19.904, 50.476 20.800, 50.485 21.167 C 50.493 21.533, 50.910 22.208, 51.410 22.667 C 51.933 23.145, 52.037 23.004, 51.654 22.335 C 51.287 21.695, 51.445 21.018, 52.004 20.832 C 52.562 20.646, 52.068 19.899, 50.905 19.173 C 49.152 18.078, 48.934 18.078, 49.630 19.176 M 29 23.500 C 30.292 24.875, 31.574 26, 31.849 26 C 32.124 26, 31.292 24.875, 30 23.500 C 28.708 22.125, 27.426 21, 27.151 21 C 26.876 21, 27.708 22.125, 29 23.500 M 54.500 22 C 54.840 22.550, 55.343 23, 55.618 23 C 55.893 23, 55.840 22.550, 55.500 22 C 55.160 21.450, 54.657 21, 54.382 21 C 54.107 21, 54.160 21.450, 54.500 22 M 21.813 22.683 C 22.534 22.972, 23.397 22.936, 23.729 22.604 C 24.061 22.272, 23.471 22.036, 22.417 22.079 C 21.252 22.127, 21.015 22.364, 21.813 22.683 M 27.814 25.781 C 29.291 27.311, 30.689 28.434, 30.921 28.277 C 31.497 27.886, 26.838 23, 25.889 23 C 25.470 23, 26.336 24.251, 27.814 25.781 M 55.500 25 C 55.840 25.550, 56.343 26, 56.618 26 C 56.893 26, 56.840 25.550, 56.500 25 C 56.160 24.450, 55.657 24, 55.382 24 C 55.107 24, 55.160 24.450, 55.500 25 M 61.500 26 C 61.840 26.550, 62.343 27, 62.618 27 C 62.893 27, 62.840 26.550, 62.500 26 C 62.160 25.450, 61.657 25, 61.382 25 C 61.107 25, 61.160 25.450, 61.500 26 M 61.329 28.363 C 62.843 29.583, 62.963 30.237, 62.024 32.168 C 60.942 34.392, 60.962 34.410, 62.445 32.559 C 64.519 29.970, 64.412 29.270, 61.750 27.980 C 59.663 26.969, 59.633 26.996, 61.329 28.363 M 65.144 30.750 C 64.053 33.300, 64.078 33.359, 65.484 31.559 C 66.318 30.491, 67 29.254, 67 28.809 C 67 27.289, 66.322 27.999, 65.144 30.750 M 77.652 28.754 C 76.873 30.015, 76.603 44.936, 77.346 45.679 C 77.706 46.039, 78 42.433, 78 37.667 L 78 29 87.500 29 C 95.029 29, 97 29.294, 97 30.417 C 97 31.196, 96.539 32.062, 95.975 32.342 C 95.411 32.621, 95.524 32.734, 96.225 32.592 C 96.926 32.450, 97.500 31.471, 97.500 30.417 C 97.500 28.680, 96.594 28.473, 87.831 28.215 C 82.513 28.058, 77.932 28.300, 77.652 28.754 M 104.345 29.543 C 104.019 30.392, 104.034 31.367, 104.376 31.710 C 104.719 32.053, 105 31.604, 105 30.712 C 105 29.412, 106.337 29.022, 111.750 28.742 L 118.500 28.392 111.719 28.196 C 106.403 28.042, 104.809 28.334, 104.345 29.543 M 13.333 29.667 C 13.700 30.033, 14.300 30.033, 14.667 29.667 C 15.033 29.300, 14.733 29, 14 29 C 13.267 29, 12.967 29.300, 13.333 29.667 M 121.500 31 C 122.495 32.100, 123.535 33, 123.810 33 C 124.085 33, 123.495 32.100, 122.500 31 C 121.505 29.900, 120.465 29, 120.190 29 C 119.915 29, 120.505 29.900, 121.500 31 M 92.429 31.927 C 92.429 32.986, 92.782 33.635, 93.214 33.368 C 93.646 33.100, 94 32.234, 94 31.441 C 94 30.648, 93.646 30, 93.214 30 C 92.782 30, 92.429 30.867, 92.429 31.927 M 108 30.941 C 108 31.459, 108.375 32.114, 108.833 32.397 C 109.292 32.680, 109.667 32.257, 109.667 31.456 C 109.667 30.655, 109.292 30, 108.833 30 C 108.375 30, 108 30.423, 108 30.941 M 30.079 32.583 C 30.127 33.748, 30.364 33.985, 30.683 33.188 C 30.972 32.466, 30.936 31.603, 30.604 31.271 C 30.272 30.939, 30.036 31.529, 30.079 32.583 M 79 32 C 79 32.733, 79.300 33.033, 79.667 32.667 C 80.033 32.300, 80.033 31.700, 79.667 31.333 C 79.300 30.967, 79 31.267, 79 32 M 118.083 31.283 C 118.313 31.439, 119.400 32.226, 120.500 33.033 C 122.350 34.390, 122.397 34.369, 121.128 32.750 C 120.373 31.788, 119.285 31, 118.711 31 C 118.137 31, 117.854 31.127, 118.083 31.283 M 9.405 33.155 C 8.962 33.870, 9.130 34.038, 9.845 33.595 C 10.480 33.203, 11 32.684, 11 32.441 C 11 31.607, 10.117 32.002, 9.405 33.155 M 15 33 C 15 33.733, 15.300 34.033, 15.667 33.667 C 16.033 33.300, 16.033 32.700, 15.667 32.333 C 15.300 31.967, 15 32.267, 15 33 M 11.485 34.025 C 11.136 34.588, 11.275 34.926, 11.793 34.775 C 12.312 34.624, 13.702 35.625, 14.882 37 L 17.029 39.500 15.264 36.256 C 13.411 32.848, 12.532 32.330, 11.485 34.025 M 31.564 34.707 C 31.022 36.132, 31.136 36.247, 32.124 35.267 C 32.808 34.588, 33.115 33.781, 32.807 33.474 C 32.499 33.166, 31.940 33.721, 31.564 34.707 M 43.333 34.667 C 43.700 35.033, 44.300 35.033, 44.667 34.667 C 45.033 34.300, 44.733 34, 44 34 C 43.267 34, 42.967 34.300, 43.333 34.667 M 48.333 34.667 C 48.700 35.033, 49.300 35.033, 49.667 34.667 C 50.033 34.300, 49.733 34, 49 34 C 48.267 34, 47.967 34.300, 48.333 34.667 M 93.345 35.543 C 93.019 36.392, 92.976 37.310, 93.249 37.583 C 93.523 37.856, 93.986 37.161, 94.279 36.040 C 94.903 33.657, 94.210 33.289, 93.345 35.543 M 107.500 35 C 107.840 35.550, 108.343 36, 108.618 36 C 108.893 36, 108.840 35.550, 108.500 35 C 108.160 34.450, 107.657 34, 107.382 34 C 107.107 34, 107.160 34.450, 107.500 35 M 110 35 C 110 35.733, 110.300 36.033, 110.667 35.667 C 111.033 35.300, 111.033 34.700, 110.667 34.333 C 110.300 33.967, 110 34.267, 110 35 M 124 63.417 C 124 86.014, 123.710 92.950, 122.750 93.338 C 122.003 93.639, 122.205 93.874, 123.250 93.921 C 124.880 93.995, 125 91.935, 125 64 C 125 47.500, 124.775 34, 124.500 34 C 124.225 34, 124 47.237, 124 63.417 M 17.226 36.579 C 18.176 37.570, 19.168 38.166, 19.431 37.903 C 19.694 37.640, 18.917 36.829, 17.705 36.100 C 15.598 34.835, 15.577 34.857, 17.226 36.579 M 27.559 36.532 C 26.491 37.339, 26.099 38, 26.686 38 C 27.274 38, 28.315 37.325, 29 36.500 C 30.557 34.624, 30.067 34.634, 27.559 36.532 M 51.500 36 C 51.840 36.550, 52.343 37, 52.618 37 C 52.893 37, 52.840 36.550, 52.500 36 C 52.160 35.450, 51.657 35, 51.382 35 C 51.107 35, 51.160 35.450, 51.500 36 M 122.226 53.750 L 122 73 115.441 73 C 110.738 73, 109.084 72.673, 109.595 71.845 C 110.038 71.130, 109.870 70.962, 109.155 71.405 C 106.421 73.094, 108.472 74, 115.031 74 C 119.828 74, 122.219 73.593, 122.555 72.718 C 122.825 72.013, 122.913 63.125, 122.749 52.968 L 122.452 34.500 122.226 53.750 M 38.405 37.155 C 37.962 37.870, 38.130 38.038, 38.845 37.595 C 39.998 36.883, 40.393 36, 39.559 36 C 39.316 36, 38.797 36.520, 38.405 37.155 M 40.455 38.455 C 38.762 40.147, 38.036 41.933, 38.116 44.205 C 38.183 46.120, 38.409 46.662, 38.655 45.500 C 38.888 44.400, 39.291 42.499, 39.552 41.275 C 39.812 40.052, 41.257 38.382, 42.763 37.565 C 44.268 36.748, 44.917 36.062, 44.205 36.040 C 43.492 36.018, 41.805 37.105, 40.455 38.455 M 51.086 38.618 C 52.414 40.333, 53.701 41.557, 53.947 41.338 C 54.193 41.119, 53.106 39.716, 51.533 38.220 L 48.672 35.500 51.086 38.618 M 61 38 C 60.411 39.100, 60.155 40, 60.430 40 C 60.705 40, 61.411 39.100, 62 38 C 62.589 36.900, 62.845 36, 62.570 36 C 62.295 36, 61.589 36.900, 61 38 M 79.252 40.500 C 79.263 42.700, 79.468 43.482, 79.707 42.238 C 79.946 40.994, 79.937 39.194, 79.687 38.238 C 79.437 37.282, 79.241 38.300, 79.252 40.500 M 21.750 38.662 C 22.438 38.940, 23.563 38.940, 24.250 38.662 C 24.938 38.385, 24.375 38.158, 23 38.158 C 21.625 38.158, 21.063 38.385, 21.750 38.662 M 54.500 39 C 54.840 39.550, 55.343 40, 55.618 40 C 55.893 40, 55.840 39.550, 55.500 39 C 55.160 38.450, 54.657 38, 54.382 38 C 54.107 38, 54.160 38.450, 54.500 39 M 5 41 C 4.411 42.100, 4.155 43, 4.430 43 C 4.705 43, 5.411 42.100, 6 41 C 6.589 39.900, 6.845 39, 6.570 39 C 6.295 39, 5.589 39.900, 5 41 M 21.250 40.689 C 22.212 40.941, 23.788 40.941, 24.750 40.689 C 25.712 40.438, 24.925 40.232, 23 40.232 C 21.075 40.232, 20.288 40.438, 21.250 40.689 M 56.500 41 C 56.160 41.550, 56.359 42, 56.941 42 C 57.523 42, 58 41.550, 58 41 C 58 40.450, 57.802 40, 57.559 40 C 57.316 40, 56.840 40.450, 56.500 41 M 93 40.642 C 93 41.179, 93.700 42.491, 94.555 43.559 C 96.022 45.389, 96.042 45.357, 94.920 43 C 93.462 39.939, 93 39.372, 93 40.642 M 36.232 44 C 36.232 45.925, 36.438 46.712, 36.689 45.750 C 36.941 44.788, 36.941 43.212, 36.689 42.250 C 36.438 41.288, 36.232 42.075, 36.232 44 M 91 41.941 C 91 42.459, 91.445 43.157, 91.989 43.493 C 92.555 43.843, 92.723 43.442, 92.382 42.552 C 91.717 40.820, 91 40.503, 91 41.941 M 66.333 42.667 C 66.700 43.033, 67.300 43.033, 67.667 42.667 C 68.033 42.300, 67.733 42, 67 42 C 66.267 42, 65.967 42.300, 66.333 42.667 M 70.813 42.683 C 71.534 42.972, 72.397 42.936, 72.729 42.604 C 73.061 42.272, 72.471 42.036, 71.417 42.079 C 70.252 42.127, 70.015 42.364, 70.813 42.683 M 57.458 44.068 C 57.095 44.656, 56.145 44.886, 55.347 44.580 C 54.537 44.269, 54.166 44.459, 54.507 45.011 C 55.428 46.501, 57.710 46.198, 58.362 44.500 C 59.025 42.772, 58.434 42.489, 57.458 44.068 M 62.004 45.496 C 60.714 46.869, 59.848 48.160, 60.079 48.364 C 60.311 48.569, 61.547 47.446, 62.826 45.868 C 65.689 42.338, 65.185 42.110, 62.004 45.496 M 105.872 44.750 C 104.629 46.336, 104.664 46.371, 106.250 45.128 C 107.916 43.821, 108.445 43, 107.622 43 C 107.415 43, 106.627 43.788, 105.872 44.750 M 2.543 44.931 C 2.226 45.443, 2.350 46.098, 2.817 46.387 C 3.284 46.676, 3.667 46.257, 3.667 45.456 C 3.667 43.770, 3.351 43.623, 2.543 44.931 M 68.250 44.689 C 69.213 44.941, 70.787 44.941, 71.750 44.689 C 72.713 44.438, 71.925 44.232, 70 44.232 C 68.075 44.232, 67.287 44.438, 68.250 44.689 M 107.139 46.033 C 105.841 47.115, 105.209 48, 105.734 48 C 106.260 48, 107.505 47.100, 108.500 46 C 110.787 43.473, 110.195 43.487, 107.139 46.033 M 6.500 46 C 6.840 46.550, 7.343 47, 7.618 47 C 7.893 47, 7.840 46.550, 7.500 46 C 7.160 45.450, 6.657 45, 6.382 45 C 6.107 45, 6.160 45.450, 6.500 46 M 63.494 47.006 C 62.496 48.110, 61.864 49.190, 62.089 49.408 C 62.315 49.626, 63.309 48.723, 64.297 47.402 C 66.479 44.484, 65.994 44.245, 63.494 47.006 M 100.269 46.693 C 101.242 46.947, 102.592 46.930, 103.269 46.656 C 103.946 46.382, 103.150 46.175, 101.500 46.195 C 99.850 46.215, 99.296 46.439, 100.269 46.693 M 7 48.911 C 8.375 50.035, 9.950 50.959, 10.500 50.962 C 11.570 50.970, 9.762 49.585, 6.500 47.899 C 5.172 47.213, 5.339 47.552, 7 48.911 M 78 48 C 76.718 48.828, 76.754 48.972, 78.250 48.985 C 79.213 48.993, 80 48.550, 80 48 C 80 46.780, 79.887 46.780, 78 48 M 11.500 49 C 11.840 49.550, 12.343 50, 12.618 50 C 12.893 50, 12.840 49.550, 12.500 49 C 12.160 48.450, 11.657 48, 11.382 48 C 11.107 48, 11.160 48.450, 11.500 49 M 40.861 49.941 C 42.159 51.073, 43.697 52, 44.277 52 C 45.507 52, 45.448 51.950, 41.500 49.638 L 38.500 47.881 40.861 49.941 M 101.813 48.683 C 102.534 48.972, 103.397 48.936, 103.729 48.604 C 104.061 48.272, 103.471 48.036, 102.417 48.079 C 101.252 48.127, 101.015 48.364, 101.813 48.683 M 38 50.378 C 38 50.585, 38.788 51.373, 39.750 52.128 C 41.336 53.371, 41.371 53.336, 40.128 51.750 C 38.821 50.084, 38 49.555, 38 50.378 M 59.102 52.059 C 59.046 53.466, 59.708 55.491, 60.574 56.559 C 61.440 57.626, 61.818 57.864, 61.415 57.087 C 61.011 56.310, 60.349 54.285, 59.943 52.587 C 59.264 49.749, 59.196 49.706, 59.102 52.059 M 12 51.350 C 12 51.581, 13.180 52.543, 14.623 53.489 C 16.066 54.434, 16.941 54.713, 16.567 54.109 C 15.854 52.955, 12 50.626, 12 51.350 M 16.733 52.124 C 17.412 52.808, 18.219 53.115, 18.526 52.807 C 18.834 52.499, 18.279 51.940, 17.293 51.564 C 15.868 51.022, 15.753 51.136, 16.733 52.124 M 48.333 51.667 C 48.700 52.033, 49.300 52.033, 49.667 51.667 C 50.033 51.300, 49.733 51, 49 51 C 48.267 51, 47.967 51.300, 48.333 51.667 M 51.333 51.667 C 51.700 52.033, 52.300 52.033, 52.667 51.667 C 53.033 51.300, 52.733 51, 52 51 C 51.267 51, 50.967 51.300, 51.333 51.667 M 42.333 53.667 C 42.700 54.033, 43.300 54.033, 43.667 53.667 C 44.033 53.300, 43.733 53, 43 53 C 42.267 53, 41.967 53.300, 42.333 53.667 M 50.500 56 C 49.647 57.650, 49.174 59, 49.449 59 C 49.724 59, 50.647 57.650, 51.500 56 C 52.353 54.350, 52.826 53, 52.551 53 C 52.276 53, 51.353 54.350, 50.500 56 M 77.813 55.683 C 78.534 55.972, 79.397 55.936, 79.729 55.604 C 80.061 55.272, 79.471 55.036, 78.417 55.079 C 77.252 55.127, 77.015 55.364, 77.813 55.683 M 99.750 55.662 C 100.438 55.940, 101.563 55.940, 102.250 55.662 C 102.938 55.385, 102.375 55.158, 101 55.158 C 99.625 55.158, 99.063 55.385, 99.750 55.662 M 10.388 58.531 C 9.475 59.923, 8.911 61.244, 9.133 61.467 C 9.356 61.689, 10.296 60.550, 11.222 58.935 C 13.286 55.340, 12.673 55.043, 10.388 58.531 M 17.813 56.683 C 18.534 56.972, 19.397 56.936, 19.729 56.604 C 20.061 56.272, 19.471 56.036, 18.417 56.079 C 17.252 56.127, 17.015 56.364, 17.813 56.683 M 95.507 56.989 C 95.157 57.555, 95.558 57.723, 96.448 57.382 C 98.180 56.717, 98.497 56, 97.059 56 C 96.541 56, 95.843 56.445, 95.507 56.989 M 74.405 58.155 C 73.962 58.870, 74.130 59.038, 74.845 58.595 C 75.480 58.203, 76 57.684, 76 57.441 C 76 56.607, 75.117 57.002, 74.405 58.155 M 99.750 57.662 C 100.438 57.940, 101.563 57.940, 102.250 57.662 C 102.938 57.385, 102.375 57.158, 101 57.158 C 99.625 57.158, 99.063 57.385, 99.750 57.662 M 11.954 60.086 C 11.340 61.233, 11.026 62.360, 11.257 62.590 C 11.487 62.820, 12.189 61.882, 12.816 60.504 C 14.194 57.480, 13.523 57.154, 11.954 60.086 M 30.500 60 C 30.840 60.550, 31.343 61, 31.618 61 C 31.893 61, 31.840 60.550, 31.500 60 C 31.160 59.450, 30.657 59, 30.382 59 C 30.107 59, 30.160 59.450, 30.500 60 M 63.441 60.445 C 64.509 61.300, 65.821 62, 66.358 62 C 67.628 62, 67.061 61.538, 64 60.080 C 61.643 58.958, 61.611 58.978, 63.441 60.445 M 66.813 59.683 C 67.534 59.972, 68.397 59.936, 68.729 59.604 C 69.061 59.272, 68.471 59.036, 67.417 59.079 C 66.252 59.127, 66.015 59.364, 66.813 59.683 M 71.333 59.667 C 71.700 60.033, 72.300 60.033, 72.667 59.667 C 73.033 59.300, 72.733 59, 72 59 C 71.267 59, 70.967 59.300, 71.333 59.667 M 75.405 60.155 C 74.962 60.870, 75.130 61.038, 75.845 60.595 C 76.673 60.084, 77 61.738, 77 66.441 L 77 73 68 73 C 59.299 73, 59.004 73.075, 59.116 75.250 C 59.200 76.883, 59.355 77.030, 59.682 75.788 C 60.055 74.368, 61.611 74.027, 68.816 73.788 L 77.500 73.500 77.794 66.250 C 78.069 59.452, 77.204 57.243, 75.405 60.155 M 92.405 60.155 C 91.962 60.870, 92.130 61.038, 92.845 60.595 C 93.480 60.203, 94 59.684, 94 59.441 C 94 58.607, 93.117 59.002, 92.405 60.155 M 106.500 60 C 106.840 60.550, 107.343 61, 107.618 61 C 107.893 61, 107.840 60.550, 107.500 60 C 107.160 59.450, 106.657 59, 106.382 59 C 106.107 59, 106.160 59.450, 106.500 60 M 109.031 59.500 C 109.031 60.050, 109.467 61.175, 110 62 C 110.533 62.825, 110.969 63.050, 110.969 62.500 C 110.969 61.950, 110.533 60.825, 110 60 C 109.467 59.175, 109.031 58.950, 109.031 59.500 M 28 62.059 C 28 62.641, 28.450 62.840, 29 62.500 C 29.550 62.160, 30 61.684, 30 61.441 C 30 61.198, 29.550 61, 29 61 C 28.450 61, 28 61.477, 28 62.059 M 72.333 61.667 C 72.700 62.033, 73.300 62.033, 73.667 61.667 C 74.033 61.300, 73.733 61, 73 61 C 72.267 61, 71.967 61.300, 72.333 61.667 M 79.300 66 C 79.300 69.025, 79.487 70.263, 79.716 68.750 C 79.945 67.237, 79.945 64.763, 79.716 63.250 C 79.487 61.737, 79.300 62.975, 79.300 66 M 93.345 62.543 C 93.019 63.392, 92.976 64.310, 93.249 64.583 C 93.523 64.856, 93.986 64.161, 94.279 63.040 C 94.903 60.657, 94.210 60.289, 93.345 62.543 M 46.405 63.155 C 45.962 63.870, 46.130 64.038, 46.845 63.595 C 47.998 62.883, 48.393 62, 47.559 62 C 47.316 62, 46.797 62.520, 46.405 63.155 M 108 63 C 108 63.733, 108.300 64.033, 108.667 63.667 C 109.033 63.300, 109.033 62.700, 108.667 62.333 C 108.300 61.967, 108 62.267, 108 63 M 43.405 64.155 C 42.962 64.870, 43.130 65.038, 43.845 64.595 C 44.998 63.883, 45.393 63, 44.559 63 C 44.316 63, 43.797 63.520, 43.405 64.155 M 25.871 66.250 C 25.800 66.938, 25.666 68.787, 25.573 70.360 L 25.404 73.219 27.202 70.999 C 28.191 69.778, 28.971 68.041, 28.937 67.139 C 28.893 66.015, 28.589 66.207, 27.969 67.750 C 26.750 70.783, 25.808 70.612, 26.589 67.500 C 26.934 66.125, 26.943 65, 26.608 65 C 26.274 65, 25.942 65.563, 25.871 66.250 M 11 67 C 11 67.733, 11.300 68.033, 11.667 67.667 C 12.033 67.300, 12.033 66.700, 11.667 66.333 C 11.300 65.967, 11 66.267, 11 67 M 38.500 67 C 38.840 67.550, 39.343 68, 39.618 68 C 39.893 68, 39.840 67.550, 39.500 67 C 39.160 66.450, 38.657 66, 38.382 66 C 38.107 66, 38.160 66.450, 38.500 67 M 9 67.941 C 9 68.459, 9.445 69.157, 9.989 69.493 C 10.555 69.843, 10.723 69.442, 10.382 68.552 C 9.717 66.820, 9 66.503, 9 67.941 M 43.405 68.155 C 42.962 68.870, 43.130 69.038, 43.845 68.595 C 44.480 68.203, 45 67.684, 45 67.441 C 45 66.607, 44.117 67.002, 43.405 68.155 M 93 67.642 C 93 68.179, 93.700 69.491, 94.555 70.559 C 96.022 72.389, 96.042 72.357, 94.920 70 C 93.462 66.939, 93 66.372, 93 67.642 M 110 69 C 110 69.733, 110.300 70.033, 110.667 69.667 C 111.033 69.300, 111.033 68.700, 110.667 68.333 C 110.300 67.967, 110 68.267, 110 69 M 14.314 71.250 C 15.363 72.213, 17.409 72.954, 18.861 72.898 C 21.281 72.804, 21.230 72.731, 18.256 72.025 C 16.472 71.602, 14.426 70.860, 13.709 70.378 C 12.992 69.895, 13.264 70.287, 14.314 71.250 M 92.406 71.332 C 92.950 73.009, 92.415 73.136, 86.092 72.832 C 82.293 72.649, 79.394 72.838, 79.651 73.250 C 79.908 73.662, 83.241 74, 87.059 74 C 94.126 74, 94.799 73.654, 92.890 71 C 91.993 69.753, 91.911 69.808, 92.406 71.332 M 105.655 71.829 C 102.440 75.381, 103.543 76, 113.082 76 L 122.164 76 121.832 83.002 C 121.649 86.853, 121.857 90.003, 122.294 90.002 C 122.730 90.001, 122.955 86.737, 122.794 82.750 L 122.500 75.500 113.750 75.211 C 108.938 75.052, 105 74.638, 105 74.290 C 105 73.942, 105.745 72.835, 106.655 71.829 C 107.565 70.823, 108.085 70, 107.810 70 C 107.535 70, 106.565 70.823, 105.655 71.829 M 11.500 72 C 11.840 72.550, 12.343 73, 12.618 73 C 12.893 73, 12.840 72.550, 12.500 72 C 12.160 71.450, 11.657 71, 11.382 71 C 11.107 71, 11.160 71.450, 11.500 72 M 97 73.461 C 97 74.609, 95.126 74.984, 88.250 75.211 L 79.500 75.500 79.206 82.750 C 79.045 86.737, 79.270 90.001, 79.706 90.002 C 80.143 90.003, 80.351 86.853, 80.168 83.002 L 79.836 76 88.918 76 C 97.333 76, 98 75.853, 98 74 C 98 72.900, 97.775 72, 97.500 72 C 97.225 72, 97 72.657, 97 73.461 M 32 93.944 L 32 114.888 34.598 117.694 L 37.195 120.500 35.098 117.615 C 33.131 114.910, 33 113.463, 33 94.365 L 33 74 42.500 74 C 52.664 74, 54.052 74.833, 50 78.500 C 48.018 80.294, 47.173 86.371, 48.768 87.357 C 49.191 87.618, 49.379 86.173, 49.185 84.146 C 48.922 81.383, 49.355 79.988, 50.917 78.575 C 52.063 77.538, 53 75.860, 53 74.845 C 53 73.169, 52.039 73, 42.500 73 L 32 73 32 93.944 M 17.250 74.689 C 18.212 74.941, 19.788 74.941, 20.750 74.689 C 21.712 74.438, 20.925 74.232, 19 74.232 C 17.075 74.232, 16.288 74.438, 17.250 74.689 M 34.882 93.703 C 34.740 116.190, 34.639 115.094, 37.049 117.154 C 38.810 118.659, 49 119.716, 49 118.393 C 49 118.122, 48.408 116.686, 47.685 115.200 C 46.961 113.715, 46.443 111.825, 46.532 111 C 46.622 110.175, 46.764 108.691, 46.848 107.702 C 47.125 104.434, 51.928 101, 56.223 101 C 63.879 101, 68.707 109.690, 64.438 115.785 C 62.407 118.684, 63.667 119.214, 71.612 118.804 L 77.500 118.500 77.789 109.750 C 77.963 104.471, 78.496 101, 79.131 101 C 79.711 101, 81.329 101.900, 82.727 103 C 85.984 105.562, 90.032 105.551, 92.799 102.972 C 95.647 100.319, 96.475 96.758, 94.922 93.843 C 92.187 88.711, 87.135 87.533, 82.727 91 C 81.329 92.100, 79.711 93, 79.131 93 C 78.496 93, 77.963 89.529, 77.789 84.250 L 77.500 75.500 70.250 75.206 C 66.263 75.045, 63.014 75.270, 63.032 75.706 C 63.049 76.143, 63.724 77.374, 64.532 78.441 C 68.710 83.965, 63.751 93, 56.542 93 C 48.901 93, 44.520 86.477, 47.451 79.464 C 48.303 77.424, 49 75.698, 48.999 75.628 C 48.999 75.558, 45.849 75.366, 41.999 75.203 L 35 74.906 34.882 93.703 M 61.500 78 C 61.840 78.550, 62.343 79, 62.618 79 C 62.893 79, 62.840 78.550, 62.500 78 C 62.160 77.450, 61.657 77, 61.382 77 C 61.107 77, 61.160 77.450, 61.500 78 M 63 81 C 63 81.733, 63.300 82.033, 63.667 81.667 C 64.033 81.300, 64.033 80.700, 63.667 80.333 C 63.300 79.967, 63 80.267, 63 81 M 63 86 C 63 86.733, 63.300 87.033, 63.667 86.667 C 64.033 86.300, 64.033 85.700, 63.667 85.333 C 63.300 84.967, 63 85.267, 63 86 M 84.333 87.667 C 84.700 88.033, 85.300 88.033, 85.667 87.667 C 86.033 87.300, 85.733 87, 85 87 C 84.267 87, 83.967 87.300, 84.333 87.667 M 90.083 87.303 C 90.313 87.469, 91.850 88.396, 93.500 89.362 L 96.500 91.119 94.139 89.059 C 92.841 87.927, 91.303 87, 90.723 87 C 90.142 87, 89.854 87.136, 90.083 87.303 M 108.750 88.080 C 106.499 89.391, 103.990 94.246, 104.035 97.200 C 104.055 98.465, 104.761 100.625, 105.605 102 C 106.588 103.603, 106.879 103.782, 106.417 102.500 C 104.858 98.180, 104.895 94.468, 106.516 92.500 C 107.946 90.764, 108.088 90.737, 107.593 92.302 C 107.247 93.396, 107.427 93.854, 108.052 93.468 C 108.618 93.118, 108.831 92.042, 108.524 91.076 C 108.150 89.898, 108.712 88.961, 110.233 88.228 C 111.480 87.627, 112.050 87.119, 111.500 87.098 C 110.950 87.078, 109.712 87.519, 108.750 88.080 M 116 87.383 C 116 87.594, 116.901 88.002, 118.001 88.290 C 119.102 88.578, 119.751 88.405, 119.442 87.907 C 118.904 87.036, 116 86.594, 116 87.383 M 60.559 89.532 C 59.491 90.339, 59.099 91, 59.686 91 C 60.274 91, 61.315 90.325, 62 89.500 C 63.557 87.624, 63.067 87.634, 60.559 89.532 M 50 89.393 C 50 89.609, 50.698 90.054, 51.552 90.382 C 52.442 90.723, 52.843 90.555, 52.493 89.989 C 51.906 89.038, 50 88.583, 50 89.393 M 110.558 89.907 C 110.249 90.405, 110.898 90.578, 111.999 90.290 C 114.334 89.679, 114.629 89, 112.559 89 C 111.766 89, 110.866 89.408, 110.558 89.907 M 116.083 89.365 C 116.313 89.565, 117.625 90.265, 119 90.920 C 121.357 92.042, 121.389 92.022, 119.559 90.555 C 117.966 89.279, 114.711 88.164, 116.083 89.365 M 54.750 91.662 C 55.438 91.940, 56.563 91.940, 57.250 91.662 C 57.938 91.385, 57.375 91.158, 56 91.158 C 54.625 91.158, 54.063 91.385, 54.750 91.662 M 97.232 97 C 97.232 98.925, 97.438 99.713, 97.689 98.750 C 97.941 97.787, 97.941 96.213, 97.689 95.250 C 97.438 94.287, 97.232 95.075, 97.232 97 M 106.158 97 C 106.158 98.375, 106.385 98.938, 106.662 98.250 C 106.940 97.563, 106.940 96.438, 106.662 95.750 C 106.385 95.063, 106.158 95.625, 106.158 97 M 107.564 101.293 C 107.940 102.279, 108.499 102.834, 108.807 102.526 C 109.115 102.219, 108.808 101.412, 108.124 100.733 C 107.136 99.753, 107.022 99.868, 107.564 101.293 M 122.208 100.681 C 123.574 101.041, 123.984 102.565, 124.259 108.315 L 124.603 115.500 124.801 107.750 C 124.993 100.290, 124.916 100.004, 122.750 100.116 C 121.125 100.200, 120.974 100.357, 122.208 100.681 M 54.750 102.662 C 55.438 102.940, 56.563 102.940, 57.250 102.662 C 57.938 102.385, 57.375 102.158, 56 102.158 C 54.625 102.158, 54.063 102.385, 54.750 102.662 M 117.500 103.536 C 115.850 104.292, 115.201 104.930, 116.059 104.955 C 116.916 104.980, 118.491 104.339, 119.559 103.532 C 121.929 101.739, 121.423 101.740, 117.500 103.536 M 51 104 C 50.099 104.582, 49.975 104.975, 50.691 104.985 C 51.346 104.993, 52.160 104.550, 52.500 104 C 53.267 102.758, 52.921 102.758, 51 104 M 79.469 104.219 C 79.155 105.040, 79.033 108.588, 79.199 112.105 L 79.500 118.500 98.751 118.533 L 118.002 118.567 99.001 118.262 L 80 117.957 80 111.443 C 80 105.181, 80.079 104.972, 82.055 106.030 C 83.186 106.635, 84.648 106.911, 85.305 106.644 C 86.095 106.323, 86.018 106.131, 85.079 106.079 C 84.297 106.036, 82.844 105.264, 81.850 104.364 C 80.277 102.940, 79.967 102.922, 79.469 104.219 M 92.500 105.068 C 90.850 106.125, 90.013 106.992, 90.639 106.995 C 91.266 106.998, 92.841 106.115, 94.139 105.033 C 97.112 102.556, 96.397 102.572, 92.500 105.068 M 110.733 104.124 C 111.412 104.808, 112.219 105.115, 112.526 104.807 C 112.834 104.499, 112.279 103.940, 111.293 103.564 C 109.868 103.022, 109.753 103.136, 110.733 104.124 M 62.237 106.240 C 62.931 107.722, 63.665 108.455, 63.866 107.869 C 64.067 107.283, 63.499 106.070, 62.603 105.174 C 61.097 103.668, 61.069 103.749, 62.237 106.240 M 121.500 109.905 C 121.500 113.152, 121.838 115.600, 122.250 115.345 C 122.662 115.091, 123 112.434, 123 109.441 C 123 106.448, 122.662 104, 122.250 104 C 121.838 104, 121.500 106.657, 121.500 109.905 M 108.333 105.667 C 108.700 106.033, 109.300 106.033, 109.667 105.667 C 110.033 105.300, 109.733 105, 109 105 C 108.267 105, 107.967 105.300, 108.333 105.667 M 118 106 C 117.099 106.582, 116.975 106.975, 117.691 106.985 C 118.346 106.993, 119.160 106.550, 119.500 106 C 120.267 104.758, 119.921 104.758, 118 106 M 111.333 106.667 C 111.700 107.033, 112.300 107.033, 112.667 106.667 C 113.033 106.300, 112.733 106, 112 106 C 111.267 106, 110.967 106.300, 111.333 106.667 M 48.160 110.595 C 48.058 112.574, 48.721 114.343, 50 115.500 C 53.691 118.840, 52.536 119.887, 44.750 120.257 L 37.500 120.603 45.250 120.801 C 52.188 120.979, 53 120.807, 53 119.155 C 53 118.140, 52.125 116.518, 51.056 115.550 C 49.986 114.582, 48.933 112.375, 48.716 110.645 L 48.320 107.500 48.160 110.595 M 63 113 C 63 113.733, 63.300 114.033, 63.667 113.667 C 64.033 113.300, 64.033 112.700, 63.667 112.333 C 63.300 111.967, 63 112.267, 63 113 M 60.625 116.484 C 59.542 117.304, 59 118.558, 59.343 119.452 C 59.864 120.809, 63.616 120.971, 89.719 120.765 L 119.500 120.531 89.750 120.251 C 73.387 120.096, 60 119.675, 60 119.314 C 60 118.953, 60.745 117.835, 61.655 116.829 C 63.621 114.657, 63.216 114.521, 60.625 116.484 M 121.461 118.043 C 119.942 119.721, 119.901 119.975, 121.229 119.466 C 122.118 119.125, 123.091 118.205, 123.391 117.423 C 124.138 115.476, 123.639 115.636, 121.461 118.043" stroke="none" fill="#ae87bc" fill-rule="evenodd"/><path d="M 42.500 18 C 42.840 18.550, 43.343 19, 43.618 19 C 43.893 19, 43.840 18.550, 43.500 18 C 43.160 17.450, 42.657 17, 42.382 17 C 42.107 17, 42.160 17.450, 42.500 18 M 24.333 20.667 C 24.700 21.033, 25.300 21.033, 25.667 20.667 C 26.033 20.300, 25.733 20, 25 20 C 24.267 20, 23.967 20.300, 24.333 20.667 M 49.500 22 C 49.840 22.550, 50.343 23, 50.618 23 C 50.893 23, 50.840 22.550, 50.500 22 C 50.160 21.450, 49.657 21, 49.382 21 C 49.107 21, 49.160 21.450, 49.500 22 M 29 22.378 C 29 22.585, 29.788 23.373, 30.750 24.128 C 32.336 25.371, 32.371 25.336, 31.128 23.750 C 29.821 22.084, 29 21.555, 29 22.378 M 11.405 29.155 C 10.962 29.870, 11.130 30.038, 11.845 29.595 C 12.998 28.883, 13.393 28, 12.559 28 C 12.316 28, 11.797 28.520, 11.405 29.155 M 33.158 31 C 33.158 32.375, 33.385 32.938, 33.662 32.250 C 33.940 31.563, 33.940 30.438, 33.662 29.750 C 33.385 29.063, 33.158 29.625, 33.158 31 M 121 29.378 C 121 29.585, 121.787 30.373, 122.750 31.128 C 124.336 32.371, 124.371 32.336, 123.128 30.750 C 121.821 29.084, 121 28.555, 121 29.378 M 80 40 C 80 49.644, 79.125 51.005, 75.500 47 C 72.736 43.946, 66.711 44.281, 64.073 47.635 C 61.528 50.869, 61.430 54.074, 63.784 56.982 C 66.257 60.036, 72.151 60.146, 75.290 57.197 C 79.385 53.351, 80 54.239, 80 64 L 80 73 86.475 73 L 92.950 73 91.975 70.435 C 90.339 66.132, 90.864 62.315, 93.527 59.150 C 97.758 54.122, 104.786 54.141, 109.166 59.191 C 111.202 61.538, 111.633 67.949, 109.965 71.066 C 108.990 72.886, 109.314 73, 115.465 73 L 122 73 122 53.557 C 122 34.598, 121.945 34.075, 119.777 32.557 C 118.555 31.701, 115.614 31, 113.242 31 C 109.288 31, 109.016 31.161, 109.965 32.934 C 111.703 36.182, 111.190 42.489, 108.957 45.328 C 104.980 50.383, 95.129 49.347, 92.025 43.546 C 90.776 41.213, 90.977 36.154, 92.455 32.750 C 93.134 31.183, 92.522 31, 86.607 31 L 80 31 80 40 M 105.500 33 C 105.840 33.550, 106.343 34, 106.618 34 C 106.893 34, 106.840 33.550, 106.500 33 C 106.160 32.450, 105.657 32, 105.382 32 C 105.107 32, 105.160 32.450, 105.500 33 M 44.813 33.683 C 45.534 33.972, 46.397 33.936, 46.729 33.604 C 47.061 33.272, 46.471 33.036, 45.417 33.079 C 44.252 33.127, 44.015 33.364, 44.813 33.683 M 28.405 35.155 C 27.962 35.870, 28.130 36.038, 28.845 35.595 C 29.480 35.203, 30 34.684, 30 34.441 C 30 33.607, 29.117 34.002, 28.405 35.155 M 59.459 35.067 C 59.096 35.653, 59.014 36.348, 59.276 36.610 C 59.538 36.872, 60.019 36.392, 60.345 35.543 C 61.021 33.781, 60.445 33.471, 59.459 35.067 M 52 35.378 C 52 35.585, 52.788 36.373, 53.750 37.128 C 55.336 38.371, 55.371 38.336, 54.128 36.750 C 52.821 35.084, 52 34.555, 52 35.378 M 29.405 38.250 L 27.500 40.500 29.750 38.595 C 31.864 36.805, 32.455 36, 31.655 36 C 31.465 36, 30.453 37.013, 29.405 38.250 M 108 37 C 108 37.733, 108.300 38.033, 108.667 37.667 C 109.033 37.300, 109.033 36.700, 108.667 36.333 C 108.300 35.967, 108 36.267, 108 37 M 93 39 C 93 39.733, 93.300 40.033, 93.667 39.667 C 94.033 39.300, 94.033 38.700, 93.667 38.333 C 93.300 37.967, 93 38.267, 93 39 M 56.405 40.155 C 55.962 40.870, 56.130 41.038, 56.845 40.595 C 57.998 39.883, 58.393 39, 57.559 39 C 57.316 39, 56.797 39.520, 56.405 40.155 M 108 40 C 108 40.733, 108.300 41.033, 108.667 40.667 C 109.033 40.300, 109.033 39.700, 108.667 39.333 C 108.300 38.967, 108 39.267, 108 40 M 39.500 48 C 39.840 48.550, 40.343 49, 40.618 49 C 40.893 49, 40.840 48.550, 40.500 48 C 40.160 47.450, 39.657 47, 39.382 47 C 39.107 47, 39.160 47.450, 39.500 48 M 50.333 50.667 C 50.700 51.033, 51.300 51.033, 51.667 50.667 C 52.033 50.300, 51.733 50, 51 50 C 50.267 50, 49.967 50.300, 50.333 50.667 M 45.813 51.683 C 46.534 51.972, 47.397 51.936, 47.729 51.604 C 48.061 51.272, 47.471 51.036, 46.417 51.079 C 45.252 51.127, 45.015 51.364, 45.813 51.683 M 19.500 53 C 19.840 53.550, 20.343 54, 20.618 54 C 20.893 54, 20.840 53.550, 20.500 53 C 20.160 52.450, 19.657 52, 19.382 52 C 19.107 52, 19.160 52.450, 19.500 53 M 44 54.383 C 44 54.594, 45.125 54.982, 46.500 55.245 C 47.875 55.508, 49 55.335, 49 54.861 C 49 54.388, 47.875 54, 46.500 54 C 45.125 54, 44 54.173, 44 54.383 M 60.500 58 C 60.840 58.550, 61.343 59, 61.618 59 C 61.893 59, 61.840 58.550, 61.500 58 C 61.160 57.450, 60.657 57, 60.382 57 C 60.107 57, 60.160 57.450, 60.500 58 M 13.405 59.155 C 12.962 59.870, 13.130 60.038, 13.845 59.595 C 14.480 59.203, 15 58.684, 15 58.441 C 15 57.607, 14.117 58.002, 13.405 59.155 M 25 60 C 25 60.733, 25.300 61.033, 25.667 60.667 C 26.033 60.300, 26.033 59.700, 25.667 59.333 C 25.300 58.967, 25 59.267, 25 60 M 31.500 60 C 31.840 60.550, 32.343 61, 32.618 61 C 32.893 61, 32.840 60.550, 32.500 60 C 32.160 59.450, 31.657 59, 31.382 59 C 31.107 59, 31.160 59.450, 31.500 60 M 95.405 60.155 C 94.962 60.870, 95.130 61.038, 95.845 60.595 C 96.480 60.203, 97 59.684, 97 59.441 C 97 58.607, 96.117 59.002, 95.405 60.155 M 43.405 63.155 C 42.962 63.870, 43.130 64.038, 43.845 63.595 C 44.998 62.883, 45.393 62, 44.559 62 C 44.316 62, 43.797 62.520, 43.405 63.155 M 67.333 62.667 C 67.700 63.033, 68.300 63.033, 68.667 62.667 C 69.033 62.300, 68.733 62, 68 62 C 67.267 62, 66.967 62.300, 67.333 62.667 M 70.333 62.667 C 70.700 63.033, 71.300 63.033, 71.667 62.667 C 72.033 62.300, 71.733 62, 71 62 C 70.267 62, 69.967 62.300, 70.333 62.667 M 8.079 64.583 C 8.127 65.748, 8.364 65.985, 8.683 65.188 C 8.972 64.466, 8.936 63.603, 8.604 63.271 C 8.272 62.939, 8.036 63.529, 8.079 64.583 M 11.079 64.583 C 11.127 65.748, 11.364 65.985, 11.683 65.188 C 11.972 64.466, 11.936 63.603, 11.604 63.271 C 11.272 62.939, 11.036 63.529, 11.079 64.583 M 26 64 C 26 64.733, 26.300 65.033, 26.667 64.667 C 27.033 64.300, 27.033 63.700, 26.667 63.333 C 26.300 62.967, 26 63.267, 26 64 M 29 64 C 29 64.733, 29.300 65.033, 29.667 64.667 C 30.033 64.300, 30.033 63.700, 29.667 63.333 C 29.300 62.967, 29 63.267, 29 64 M 41.333 65.667 C 41.700 66.033, 42.300 66.033, 42.667 65.667 C 43.033 65.300, 42.733 65, 42 65 C 41.267 65, 40.967 65.300, 41.333 65.667 M 93 66 C 93 66.733, 93.300 67.033, 93.667 66.667 C 94.033 66.300, 94.033 65.700, 93.667 65.333 C 93.300 64.967, 93 65.267, 93 66 M 108 67 C 108 67.733, 108.300 68.033, 108.667 67.667 C 109.033 67.300, 109.033 66.700, 108.667 66.333 C 108.300 65.967, 108 66.267, 108 67 M 12 68.378 C 12 68.585, 12.787 69.373, 13.750 70.128 C 15.336 71.371, 15.371 71.336, 14.128 69.750 C 12.821 68.084, 12 67.555, 12 68.378 M 23.405 70.155 C 22.962 70.870, 23.130 71.038, 23.845 70.595 C 24.480 70.203, 25 69.684, 25 69.441 C 25 68.607, 24.117 69.002, 23.405 70.155 M 95.500 71 C 95.840 71.550, 96.343 72, 96.618 72 C 96.893 72, 96.840 71.550, 96.500 71 C 96.160 70.450, 95.657 70, 95.382 70 C 95.107 70, 95.160 70.450, 95.500 71 M 60 77.378 C 60 77.585, 60.788 78.373, 61.750 79.128 C 63.336 80.371, 63.371 80.336, 62.128 78.750 C 60.821 77.084, 60 76.555, 60 77.378 M 114.333 86.667 C 114.700 87.033, 115.300 87.033, 115.667 86.667 C 116.033 86.300, 115.733 86, 115 86 C 114.267 86, 113.967 86.300, 114.333 86.667 M 60.872 88.750 C 59.629 90.336, 59.664 90.371, 61.250 89.128 C 62.916 87.821, 63.445 87, 62.622 87 C 62.415 87, 61.627 87.787, 60.872 88.750 M 114.333 89.667 C 114.700 90.033, 115.300 90.033, 115.667 89.667 C 116.033 89.300, 115.733 89, 115 89 C 114.267 89, 113.967 89.300, 114.333 89.667 M 120.500 93 C 120.840 93.550, 121.343 94, 121.618 94 C 121.893 94, 121.840 93.550, 121.500 93 C 121.160 92.450, 120.657 92, 120.382 92 C 120.107 92, 120.160 92.450, 120.500 93 M 113.333 104.667 C 113.700 105.033, 114.300 105.033, 114.667 104.667 C 115.033 104.300, 114.733 104, 114 104 C 113.267 104, 112.967 104.300, 113.333 104.667 M 113.750 107.662 C 114.438 107.940, 115.563 107.940, 116.250 107.662 C 116.938 107.385, 116.375 107.158, 115 107.158 C 113.625 107.158, 113.063 107.385, 113.750 107.662" stroke="none" fill="#a0c551" fill-rule="evenodd"/><path d="M 26.223 11.671 C 25.521 11.954, 24.049 13.943, 22.953 16.092 L 20.959 20 23.230 20.004 C 29.915 20.015, 35.465 28.049, 32.962 34.093 C 29.847 41.612, 21.211 43.411, 15.526 37.726 L 12.252 34.452 9.626 39.123 C 8.182 41.693, 7 44.196, 7 44.687 C 7 45.178, 10.150 47.281, 14 49.360 C 21.510 53.416, 22.619 55.434, 18.252 57.094 C 11.492 59.665, 9.694 66.041, 14.635 69.927 C 18.129 72.676, 20.550 72.541, 23.667 69.424 C 25.813 67.278, 26.156 66.200, 25.722 62.963 C 24.904 56.864, 26.600 56.466, 34.054 61.005 C 37.599 63.163, 40.953 64.945, 41.507 64.965 C 42.328 64.993, 48 56.787, 48 55.571 C 48 55.379, 46.452 54.932, 44.560 54.577 C 39.876 53.698, 36 48.975, 36 44.146 C 36 39.766, 38.009 36.564, 42.077 34.460 C 45.983 32.440, 52.309 34.015, 54.651 37.591 C 56.537 40.468, 57.132 40.092, 60.417 33.950 L 62.755 29.580 46.627 20.301 C 31.161 11.403, 29.080 10.523, 26.223 11.671" stroke="none" fill="#fecc35" fill-rule="evenodd"/></svg>